<svg xmlns="http://www.w3.org/2000/svg" viewBox="0 0 32 32">
  <defs>
    <linearGradient id="nv" x1="0" y1="0" x2="32" y2="32" gradientUnits="userSpaceOnUse">
      <stop offset="0%" stop-color="#76B900"/>
      <stop offset="100%" stop-color="#5a8f00"/>
    </linearGradient>
  </defs>
  <rect width="32" height="32" rx="7" fill="url(#nv)"/>
  <path d="M12.5 11c2-1.1 4.3-.7 5.8.7l-2.1 2.2c-.9-.8-2.3-.9-3.4-.3-1.5 1-1.5 3.6 0 4.6 1 .7 2.5.6 3.4-.3l2.1 2.2c-1.5 1.4-3.8 1.8-5.8.7-3-1.7-3-6 0-7.8z" fill="white" opacity=".95"/>
  <path d="M18.3 13.8c1.2 1.5 1.2 4 0 5.5l2.2-2.8-2.2-2.7z" fill="white" opacity=".7"/>
</svg>
